<mxfile host="www.draw.io" modified="2019-11-11T12:23:48.064Z" agent="Mozilla/5.0 (Macintosh; Intel Mac OS X 10_14_2) AppleWebKit/537.36 (KHTML, like Gecko) Chrome/78.0.3904.70 Safari/537.36" etag="44hWfLLhKRG65sJ7jrRQ" version="12.2.3" type="github" pages="1">
  <diagram name="Page-1" id="5f0bae14-7c28-e335-631c-24af17079c00">
    <mxGraphModel dx="1426" dy="642" grid="1" gridSize="10" guides="1" tooltips="1" connect="1" arrows="1" fold="1" page="1" pageScale="1" pageWidth="1100" pageHeight="850" background="#ffffff" math="0" shadow="0">
      <root>
        <mxCell id="0"/>
        <mxCell id="1" parent="0"/>
        <mxCell id="WFXihi4TSYjyIUXCZcGX-3" value="本地应用容器" style="shape=ext;double=1;rounded=0;whiteSpace=wrap;html=1;fillColor=#99CCFF;align=center;verticalAlign=top;" vertex="1" parent="1">
          <mxGeometry x="530" y="250" width="330" height="340" as="geometry"/>
        </mxCell>
        <mxCell id="WFXihi4TSYjyIUXCZcGX-11" style="edgeStyle=orthogonalEdgeStyle;rounded=0;orthogonalLoop=1;jettySize=auto;html=1;entryX=0.5;entryY=0;entryDx=0;entryDy=0;align=center;" edge="1" parent="1" source="WFXihi4TSYjyIUXCZcGX-4" target="WFXihi4TSYjyIUXCZcGX-10">
          <mxGeometry relative="1" as="geometry"/>
        </mxCell>
        <mxCell id="WFXihi4TSYjyIUXCZcGX-12" value="拉取configService的ip" style="text;html=1;resizable=0;points=[];align=center;verticalAlign=middle;labelBackgroundColor=#ffffff;" vertex="1" connectable="0" parent="WFXihi4TSYjyIUXCZcGX-11">
          <mxGeometry y="1" relative="1" as="geometry">
            <mxPoint as="offset"/>
          </mxGeometry>
        </mxCell>
        <mxCell id="WFXihi4TSYjyIUXCZcGX-14" style="edgeStyle=orthogonalEdgeStyle;rounded=0;orthogonalLoop=1;jettySize=auto;html=1;exitX=0;exitY=0.75;exitDx=0;exitDy=0;entryX=1;entryY=0.75;entryDx=0;entryDy=0;align=center;" edge="1" parent="1" source="WFXihi4TSYjyIUXCZcGX-4" target="WFXihi4TSYjyIUXCZcGX-6">
          <mxGeometry relative="1" as="geometry"/>
        </mxCell>
        <mxCell id="WFXihi4TSYjyIUXCZcGX-16" value="获取配置" style="text;html=1;resizable=0;points=[];align=center;verticalAlign=middle;labelBackgroundColor=#ffffff;" vertex="1" connectable="0" parent="WFXihi4TSYjyIUXCZcGX-14">
          <mxGeometry x="0.2039" y="-2" relative="1" as="geometry">
            <mxPoint as="offset"/>
          </mxGeometry>
        </mxCell>
        <mxCell id="WFXihi4TSYjyIUXCZcGX-4" value="PlanMan-SDK" style="html=1;whiteSpace=wrap;comic=1;strokeWidth=2;fontFamily=Comic Sans MS;fontStyle=1;align=center;" vertex="1" parent="1">
          <mxGeometry x="550" y="470" width="180" height="70" as="geometry"/>
        </mxCell>
        <mxCell id="WFXihi4TSYjyIUXCZcGX-5" value="应用服务" style="html=1;whiteSpace=wrap;comic=1;strokeWidth=2;fontFamily=Comic Sans MS;fontStyle=1;align=center;" vertex="1" parent="1">
          <mxGeometry x="550" y="320" width="180" height="70" as="geometry"/>
        </mxCell>
        <mxCell id="WFXihi4TSYjyIUXCZcGX-13" style="edgeStyle=orthogonalEdgeStyle;rounded=0;orthogonalLoop=1;jettySize=auto;html=1;exitX=1;exitY=0.4;exitDx=0;exitDy=0;exitPerimeter=0;align=center;" edge="1" parent="1" source="WFXihi4TSYjyIUXCZcGX-6">
          <mxGeometry relative="1" as="geometry">
            <mxPoint x="550" y="494" as="targetPoint"/>
          </mxGeometry>
        </mxCell>
        <mxCell id="WFXihi4TSYjyIUXCZcGX-15" value="下发配置" style="text;html=1;resizable=0;points=[];align=center;verticalAlign=middle;labelBackgroundColor=#ffffff;" vertex="1" connectable="0" parent="WFXihi4TSYjyIUXCZcGX-13">
          <mxGeometry x="0.1176" y="1" relative="1" as="geometry">
            <mxPoint as="offset"/>
          </mxGeometry>
        </mxCell>
        <mxCell id="WFXihi4TSYjyIUXCZcGX-18" style="edgeStyle=orthogonalEdgeStyle;rounded=0;orthogonalLoop=1;jettySize=auto;html=1;align=center;" edge="1" parent="1" source="WFXihi4TSYjyIUXCZcGX-6" target="WFXihi4TSYjyIUXCZcGX-17">
          <mxGeometry relative="1" as="geometry"/>
        </mxCell>
        <mxCell id="WFXihi4TSYjyIUXCZcGX-19" value="获取存储对象" style="text;html=1;resizable=0;points=[];align=center;verticalAlign=middle;labelBackgroundColor=#ffffff;" vertex="1" connectable="0" parent="WFXihi4TSYjyIUXCZcGX-18">
          <mxGeometry x="-0.24" y="1" relative="1" as="geometry">
            <mxPoint as="offset"/>
          </mxGeometry>
        </mxCell>
        <mxCell id="WFXihi4TSYjyIUXCZcGX-21" style="edgeStyle=orthogonalEdgeStyle;rounded=0;orthogonalLoop=1;jettySize=auto;html=1;align=center;" edge="1" parent="1" source="WFXihi4TSYjyIUXCZcGX-6" target="WFXihi4TSYjyIUXCZcGX-20">
          <mxGeometry relative="1" as="geometry"/>
        </mxCell>
        <mxCell id="WFXihi4TSYjyIUXCZcGX-22" value="更新状态" style="text;html=1;resizable=0;points=[];align=center;verticalAlign=middle;labelBackgroundColor=#ffffff;" vertex="1" connectable="0" parent="WFXihi4TSYjyIUXCZcGX-21">
          <mxGeometry x="0.0727" y="1" relative="1" as="geometry">
            <mxPoint as="offset"/>
          </mxGeometry>
        </mxCell>
        <mxCell id="WFXihi4TSYjyIUXCZcGX-6" value="" style="shape=ext;double=1;rounded=1;whiteSpace=wrap;html=1;fillColor=#ffe6cc;align=center;strokeColor=#d79b00;" vertex="1" parent="1">
          <mxGeometry x="270" y="470" width="180" height="70" as="geometry"/>
        </mxCell>
        <mxCell id="WFXihi4TSYjyIUXCZcGX-8" style="edgeStyle=orthogonalEdgeStyle;rounded=0;orthogonalLoop=1;jettySize=auto;html=1;align=center;" edge="1" parent="1" source="WFXihi4TSYjyIUXCZcGX-7" target="WFXihi4TSYjyIUXCZcGX-6">
          <mxGeometry relative="1" as="geometry"/>
        </mxCell>
        <mxCell id="WFXihi4TSYjyIUXCZcGX-24" style="edgeStyle=orthogonalEdgeStyle;rounded=0;orthogonalLoop=1;jettySize=auto;html=1;align=center;" edge="1" parent="1" source="WFXihi4TSYjyIUXCZcGX-7" target="WFXihi4TSYjyIUXCZcGX-17">
          <mxGeometry relative="1" as="geometry"/>
        </mxCell>
        <mxCell id="WFXihi4TSYjyIUXCZcGX-25" value="存放预案对象" style="text;html=1;resizable=0;points=[];align=center;verticalAlign=middle;labelBackgroundColor=#ffffff;" vertex="1" connectable="0" parent="WFXihi4TSYjyIUXCZcGX-24">
          <mxGeometry x="0.2286" y="-2" relative="1" as="geometry">
            <mxPoint as="offset"/>
          </mxGeometry>
        </mxCell>
        <mxCell id="WFXihi4TSYjyIUXCZcGX-7" value="AppPlanManService" style="shape=ext;double=1;rounded=1;whiteSpace=wrap;html=1;fillColor=#ffe6cc;align=center;strokeColor=#d79b00;" vertex="1" parent="1">
          <mxGeometry x="270" y="340" width="180" height="80" as="geometry"/>
        </mxCell>
        <mxCell id="WFXihi4TSYjyIUXCZcGX-10" value="zookeeper" style="ellipse;shape=doubleEllipse;whiteSpace=wrap;html=1;fillColor=#FFF4C3;align=center;" vertex="1" parent="1">
          <mxGeometry x="890" y="505" width="90" height="90" as="geometry"/>
        </mxCell>
        <mxCell id="WFXihi4TSYjyIUXCZcGX-17" value="Redis" style="ellipse;shape=doubleEllipse;whiteSpace=wrap;html=1;aspect=fixed;fillColor=#1ba1e2;align=center;strokeColor=#006EAF;fontColor=#ffffff;" vertex="1" parent="1">
          <mxGeometry x="80" y="340" width="80" height="80" as="geometry"/>
        </mxCell>
        <mxCell id="WFXihi4TSYjyIUXCZcGX-20" value="DB" style="ellipse;shape=doubleEllipse;whiteSpace=wrap;html=1;aspect=fixed;fillColor=#1ba1e2;align=center;strokeColor=#006EAF;fontColor=#ffffff;" vertex="1" parent="1">
          <mxGeometry x="400" y="580" width="80" height="80" as="geometry"/>
        </mxCell>
        <mxCell id="WFXihi4TSYjyIUXCZcGX-27" value="" style="shape=ext;double=1;rounded=1;whiteSpace=wrap;html=1;fillColor=#ffe6cc;align=center;strokeColor=#d79b00;" vertex="1" parent="1">
          <mxGeometry x="280" y="460" width="180" height="70" as="geometry"/>
        </mxCell>
        <mxCell id="WFXihi4TSYjyIUXCZcGX-26" value="AppPlanManConfigService" style="shape=ext;double=1;rounded=1;whiteSpace=wrap;html=1;fillColor=#ffe6cc;align=center;strokeColor=#d79b00;" vertex="1" parent="1">
          <mxGeometry x="290" y="450" width="180" height="70" as="geometry"/>
        </mxCell>
      </root>
    </mxGraphModel>
  </diagram>
</mxfile>
